<svg viewBox="0 0 336 364" xmlns="http://www.w3.org/2000/svg" xml:space="preserve" fill-rule="evenodd" clip-rule="evenodd" stroke-linejoin="round" stroke-miterlimit="2"><g fill="#00005f" fill-rule="nonzero"><path d="m201 0 28 16L97 92l50 29-22 12-77-44L201 0Z"/><path d="m289 51 28 16-153 89-28-16 153-89Z"/></g><g fill="#00005f" fill-rule="nonzero"><path d="M335 76v97l-23 13v-33l-138 80v-30l138-80V90l23-14Z"/><path d="M335 185v86l-23 13v-56l-45 26v44l-23 14v-44l-47 27v55l-23 14v-86l161-93Z"/></g><g fill="#bc4749" fill-rule="nonzero"><path d="M19 281 0 268l4-24 11 8c7 4 12 5 15 3s5-7 5-15V96l29 17v149c0 13-5 22-13 26-8 3-19 1-32-7Z"/><path d="M120 340a97 97 0 0 1-41-46c-4-9-6-18-6-27v-7l28 13v7a38 38 0 0 0 19 33c5 3 10 4 13 3 4-2 5-5 5-11s-1-12-5-20l-21-35c-14-22-24-39-29-50-5-12-8-23-8-34 0-14 4-23 12-27 8-3 18-1 32 6 14 8 24 19 32 32s12 26 12 40v5l-28-13v-5c0-7-1-14-4-19s-7-10-12-13c-5-2-9-3-11-2-3 2-5 5-5 11s2 13 6 21l21 35c14 23 24 39 29 51 5 11 8 22 8 32 0 9-2 16-6 21s-10 7-17 7-15-3-24-8Z"/></g></svg>